<?xml version="1.0" encoding="UTF-8" standalone="no"?>
<svg width="388px" height="126px" viewBox="0 0 388 126" version="1.1" xmlns="http://www.w3.org/2000/svg" xmlns:xlink="http://www.w3.org/1999/xlink">
    <!-- Generator: Sketch 3.8.3 (29802) - http://www.bohemiancoding.com/sketch -->
    <title>Group 3</title>
    <desc>Created with Sketch.</desc>
    <defs></defs>
    <g id="Page-1" stroke="none" stroke-width="1" fill="none" fill-rule="evenodd">
        <g id="Group-3" transform="translate(0.000000, -1.000000)">
            <g id="Group" fill="#4A4A4A">
                <path d="M82.5258549,3.91699041 C107.76157,12.1464996 126,35.8979941 126,63.9140886 C126,98.7551415 97.7943801,127 63.0004988,127 C28.2066175,127 0,98.7551415 0,63.9140886 C0,30.6464124 25.7155684,3.39353048 58.3276617,1 L29.7469379,38.2205978 C24.2630383,45.3262666 20.9998337,54.2390708 20.9998337,63.9140886 C20.9998337,87.1421232 39.8039129,105.971696 63.0004988,105.971696 C86.1960871,105.971696 105.000166,87.1421232 105.000166,63.9140886 C105.000166,42.5551257 89.099152,24.9143265 68.5033531,22.2151114 L82.5258549,3.91699041" id="Fill-16"></path>
                <ellipse id="Oval-5" cx="63.5" cy="63.5" rx="20.5" ry="20.5"></ellipse>
            </g>
            <path d="M140.528,28.008 L140.528,24.696 C140.528,21.6239846 141.295992,19.3080078 142.832,17.748 C144.368008,16.1879922 146.911982,15.408 150.464,15.408 C156.56003,15.408 162.343973,15.6719974 167.816,16.2 L167.816,18.288 L150.464,18.288 C147.823987,18.288 146.000005,18.791995 144.992,19.8 C143.983995,20.808005 143.48,22.4399887 143.48,24.696 L143.48,28.008 C143.48,30.600013 144.103994,32.1839971 145.352,32.76 C146.072004,33.0960017 146.755997,33.2999996 147.404,33.372 C148.052003,33.4440004 149.071993,33.48 150.464,33.48 L160.4,33.48 C163.280014,33.48 165.559992,34.2479923 167.24,35.784 C168.920008,37.3200077 169.76,39.4319866 169.76,42.12 L169.76,45.648 C169.76,49.3920187 168.77601,51.8399942 166.808,52.992 C165.127992,53.9040046 163.220011,54.36 161.084,54.36 C158.947989,54.36 155.612023,54.2400012 151.076,54 C146.539977,53.7599988 143.552007,53.5680007 142.112,53.424 L142.112,51.408 L160.4,51.408 C162.752012,51.408 164.359996,51.0240038 165.224,50.256 C166.280005,49.247995 166.808,47.7120103 166.808,45.648 L166.808,42.12 C166.808,40.4399916 166.268005,39.0720053 165.188,38.016 C164.107995,36.9599947 162.512011,36.432 160.4,36.432 L150.464,36.432 C146.767982,36.432 144.188007,35.9040053 142.724,34.848 C141.259993,33.7919947 140.528,31.5120175 140.528,28.008 L140.528,28.008 Z M177.752,9.36 L177.752,5.04 C177.752,4.27199616 178.135996,3.888 178.904,3.888 L180.632,3.888 C181.352004,3.888 181.712,4.27199616 181.712,5.04 L181.712,9.36 C181.712,10.0800036 181.352004,10.44 180.632,10.44 L178.904,10.44 C178.135996,10.44 177.752,10.0800036 177.752,9.36 L177.752,9.36 Z M178.184,54 L178.184,15.768 L181.136,15.768 L181.136,54 L178.184,54 Z M188.264,54 L202.088,34.848 L188.264,15.768 L192.08,15.768 L203.96,32.328 L215.912,15.768 L219.728,15.768 L205.832,34.92 L219.512,54 L215.912,54 L203.96,37.512 L192.08,54 L188.264,54 Z M223.544,18.648 L223.544,16.488 L229.952,15.696 L230.744,5.04 L232.904,5.04 L232.904,15.696 L245,15.696 L245,18.648 L232.904,18.648 L232.904,40.392 C232.904,44.9520228 233.599993,47.9039933 234.992,49.248 C235.664003,49.8720031 236.251997,50.2919989 236.756,50.508 C237.260003,50.7240011 238.567989,51.035998 240.68,51.444 C242.792011,51.852002 244.015998,52.056 244.352,52.056 L244.352,54 L239.024,54 C235.999985,54 233.732008,52.9200108 232.22,50.76 C230.707992,48.5999892 229.952,45.1440238 229.952,40.392 L229.952,18.648 L223.544,18.648 Z M249.464,15.768 L252.632,15.768 L262.856,45.648 C264.104006,49.1040173 265.975988,50.8799995 268.472,50.976 L269.264,50.904 L281.144,15.768 L284.312,15.768 L267.536,66.096 L263.504,73.44 L261.776,73.44 L268.256,54 C264.17598,53.807999 261.344008,51.1680254 259.76,46.08 L249.464,15.768 Z M138.08,88.472 L138.08,81.992 L144.056,80.768 L144.056,73.64 C144.056,70.0879822 144.919991,67.3280098 146.648,65.36 C148.376009,63.3919902 151.159981,62.408 155,62.408 C158.840019,62.408 162.175986,62.9839942 165.008,64.136 L165.008,70.112 L158.096,70.04 C155.887989,69.9919998 154.640001,70.7119926 154.352,72.2 C154.207999,73.0160041 154.136,74.2879914 154.136,76.016 L154.136,80.768 L162.848,80.768 L162.848,88.472 L154.136,88.472 L154.136,119 L144.056,119 L144.056,88.472 L138.08,88.472 Z M169.328,119 L169.328,80.768 L177.824,80.768 L179.408,85.592 C183.008018,82.1359827 186.655982,80.408 190.352,80.408 C192.41601,80.408 193.831996,80.5519986 194.6,80.84 L194.6,90.56 C193.255993,90.4159993 191.432012,90.344 189.128,90.344 C186.823988,90.344 184.916008,90.643997 183.404,91.244 C181.891992,91.844003 180.560006,92.9599918 179.408,94.592 L179.408,119 L169.328,119 Z M199.496,82.64 C203.864022,80.9119914 209.695964,80.048 216.992,80.048 C221.408022,80.048 224.803988,80.9719908 227.18,82.82 C229.556012,84.6680092 230.744,87.8479774 230.744,92.36 L230.744,119 L222.752,119 L220.664,114.824 C220.471999,115.160002 219.860005,115.675997 218.828,116.372 C217.795995,117.068003 216.368009,117.751997 214.544,118.424 C212.719991,119.096003 210.968008,119.432 209.288,119.432 C205.735982,119.432 203.00001,118.41201 201.08,116.372 C199.15999,114.33199 198.2,111.968013 198.2,109.28 L198.2,105.68 C198.2,102.607985 199.111991,100.08801 200.936,98.12 C202.760009,96.1519902 205.567981,95.1799999 209.36,95.204 C213.152019,95.2280001 215.983991,95.24 217.856,95.24 C219.728009,95.24 220.664,95.2160002 220.664,95.168 L220.664,93.404 L220.664,92.72 C220.664,90.7999904 220.256004,89.540003 219.44,88.94 C218.623996,88.339997 216.992012,88.04 214.544,88.04 C212.095988,88.04 207.080038,88.3039974 199.496,88.832 L199.496,82.64 Z M208.28,107.84 C208.28,109.280007 208.591997,110.227998 209.216,110.684 C209.840003,111.140002 210.751994,111.368 211.952,111.368 C213.152006,111.368 214.483993,111.116003 215.948,110.612 C217.412007,110.107997 218.551996,109.616002 219.368,109.136 L220.664,108.344 L220.664,101.36 L211.376,102.08 C209.31199,102.272001 208.28,103.567988 208.28,105.968 L208.28,107.84 Z M260.048,93.512 C260.048,90.0559827 258.632014,88.328 255.8,88.328 C253.87999,88.328 252.296006,88.5679976 251.048,89.048 C249.799994,89.5280024 248.384008,90.367994 246.8,91.568 L246.8,119 L236.72,119 L236.72,80.768 L244.784,80.768 L246.8,84.872 C246.944001,84.7759995 247.423996,84.4400029 248.24,83.864 C249.056004,83.2879971 249.847996,82.7600024 250.616,82.28 C251.384004,81.7999976 252.499993,81.3320023 253.964,80.876 C255.428007,80.4199977 256.999992,80.192 258.68,80.192 C263.624025,80.192 266.935992,81.8479834 268.616,85.16 C273.128023,81.8479834 277.711977,80.192 282.368,80.192 C289.952038,80.192 293.744,84.6799551 293.744,93.656 L293.744,119 L283.664,119 L283.664,93.512 C283.664,90.919987 282.848008,89.2880034 281.216,88.616 C280.687997,88.423999 280.088003,88.328 279.416,88.328 C275.575981,88.328 272.456012,89.3359899 270.056,91.352 L270.128,93.584 L270.128,119 L260.048,119 L260.048,93.512 Z M301.088,117.344 L301.088,110.864 C301.088,109.663994 301.663994,109.064 302.816,109.064 L309.008,109.064 C310.208006,109.064 310.808,109.663994 310.808,110.864 L310.808,117.344 C310.808,118.448006 310.208006,119 309.008,119 L302.816,119 C302.287997,119 301.868002,118.844002 301.556,118.532 C301.243998,118.219998 301.088,117.824002 301.088,117.344 L301.088,117.344 Z M328.376,80.912 C330.056008,80.6239986 331.975989,80.48 334.136,80.48 C336.296011,80.48 337.975994,80.5159996 339.176,80.588 C340.376006,80.6600004 341.587994,80.8039989 342.812,81.02 C344.036006,81.2360011 345.031996,81.547998 345.8,81.956 C346.568004,82.364002 347.311996,82.9159965 348.032,83.612 C348.752004,84.3080035 349.303998,85.1359952 349.688,86.096 C350.552004,88.2560108 350.984,90.739986 350.984,93.548 C350.984,96.356014 350.576004,98.4799928 349.76,99.92 C348.175992,102.656014 345.032024,104.024 340.328,104.024 L328.16,104.024 C328.16,105.704008 328.303999,107.047995 328.592,108.056 C328.880001,109.064005 329.407996,109.795998 330.176,110.252 C330.944004,110.708002 331.747996,110.995999 332.588,111.116 C333.428004,111.236001 335.719981,111.296 339.464,111.296 C343.208019,111.296 346.807983,111.032003 350.264,110.504 L350.264,117.344 C348.103989,118.160004 345.932011,118.663999 343.748,118.856 C341.563989,119.048001 340.064004,119.168 339.248,119.216 C338.431996,119.264 337.424006,119.288 336.224,119.288 C334.639992,119.336 332.792011,119.36 330.68,119.36 C325.927976,119.36 322.640009,117.872015 320.816,114.896 C318.991991,111.919985 318.08,107.084033 318.08,100.388 C318.08,93.6919665 318.811993,88.940014 320.276,86.132 C321.740007,83.323986 324.43998,81.5840034 328.376,80.912 L328.376,80.912 Z M340.904,93.872 C340.904,91.471988 340.580003,89.9240035 339.932,89.228 C339.283997,88.5319965 337.97601,88.184 336.008,88.184 C334.03999,88.184 332.684004,88.2439994 331.94,88.364 C331.195996,88.4840006 330.476003,88.8199972 329.78,89.372 C329.083997,89.9240028 328.640001,90.7519945 328.448,91.856 C328.255999,92.9600055 328.16,94.0039951 328.16,94.988 L328.16,96.752 L337.736,96.752 C339.848011,96.752 340.904,95.7920096 340.904,93.872 L340.904,93.872 Z M365.24,80.408 C376.616057,80.408 383.431989,81.0559935 385.688,82.352 L385.688,88.688 L368.336,88.688 C367.135994,88.688 366.344002,88.8799981 365.96,89.264 C365.575998,89.6480019 365.384,90.343995 365.384,91.352 L365.384,93.08 C365.384,94.1840055 365.623998,94.8679987 366.104,95.132 C366.584002,95.3960013 367.327995,95.528 368.336,95.528 L377.408,95.528 C379.760012,95.528 381.703992,95.9839954 383.24,96.896 C386.120014,98.5280082 387.56,101.35998 387.56,105.392 L387.56,109.352 C387.56,112.952018 386.672009,115.519992 384.896,117.056 C383.119991,118.592008 380.888013,119.36 378.2,119.36 C366.10394,119.36 359.000011,118.664007 356.888,117.272 L356.888,111.008 L374.96,111.008 C376.640008,111.008 377.48,110.192008 377.48,108.56 L377.48,106.76 C377.48,105.895996 377.300002,105.272002 376.94,104.888 C376.579998,104.503998 375.920005,104.312 374.96,104.312 L366.032,104.312 C358.879964,104.312 355.304,100.880034 355.304,94.016 L355.304,90.704 C355.304,83.8399657 358.615967,80.408 365.24,80.408 L365.24,80.408 Z" id="sixty" fill="#4F4A4A"></path>
        </g>
    </g>
</svg>