<?xml version="1.0" standalone="no"?>
<!DOCTYPE svg PUBLIC "-//W3C//DTD SVG 20010904//EN"
 "http://www.w3.org/TR/2001/REC-SVG-20010904/DTD/svg10.dtd">
<svg version="1.0" xmlns="http://www.w3.org/2000/svg"
 width="700.000000pt" height="700.000000pt" viewBox="0 0 700.000000 700.000000"
 preserveAspectRatio="xMidYMid meet">
<metadata>
Created by potrace 1.11, written by Peter Selinger 2001-2013
</metadata>
<g transform="translate(0.000000,700.000000) scale(0.100000,-0.100000)"
fill="#000000" stroke="none">
<path d="M3130 6989 c-115 -13 -292 -41 -395 -63 -367 -77 -820 -269 -1148
-487 -85 -57 -225 -157 -237 -169 -4 -4 -34 -28 -130 -105 -70 -55 -367 -364
-444 -460 -223 -280 -405 -593 -526 -905 -29 -74 -56 -144 -60 -155 -47 -115
-135 -482 -155 -645 -3 -25 -7 -63 -10 -85 -21 -174 -27 -513 -12 -702 26
-338 115 -711 248 -1034 52 -128 160 -350 204 -419 14 -22 25 -42 25 -45 0
-14 204 -307 275 -395 113 -142 301 -341 405 -430 14 -12 39 -34 55 -48 17
-15 50 -43 75 -62 25 -19 47 -37 50 -40 3 -3 39 -30 80 -60 281 -207 595 -372
920 -485 89 -31 204 -66 260 -80 49 -12 158 -37 175 -41 101 -20 186 -35 238
-40 34 -3 65 -8 68 -9 15 -10 227 -20 409 -20 188 0 341 8 430 21 144 21 295
48 345 61 33 8 67 16 75 18 79 16 378 114 475 155 17 8 32 14 35 15 91 31 377
183 545 290 70 45 235 163 250 179 6 6 28 24 49 40 116 87 332 298 462 451
312 369 546 800 684 1257 22 75 43 146 45 157 3 12 7 31 10 44 2 12 8 36 12
52 4 17 7 32 8 35 1 3 5 25 9 50 5 25 10 54 12 65 6 29 31 209 40 285 17 154
11 569 -10 735 -3 22 -8 58 -11 80 -30 245 -121 580 -226 837 -95 232 -182
394 -324 608 -275 413 -608 744 -1022 1013 -192 125 -496 275 -709 350 l-100
35 -60 -79 c-57 -77 -71 -95 -104 -136 -8 -10 -51 -65 -95 -123 -93 -122 -240
-315 -290 -380 -158 -204 -225 -294 -221 -297 2 -3 19 -7 38 -10 562 -86 1087
-384 1440 -817 293 -358 479 -787 523 -1206 3 -30 8 -73 10 -95 6 -46 6 -331
0 -390 -5 -58 -16 -146 -21 -170 -2 -11 -7 -36 -10 -55 -21 -130 -83 -341
-139 -468 -36 -85 -100 -219 -115 -242 -5 -8 -37 -60 -71 -115 -34 -55 -71
-112 -83 -127 -11 -14 -32 -41 -46 -59 -144 -191 -391 -414 -609 -549 -69 -43
-208 -115 -316 -165 -168 -77 -414 -142 -670 -174 -75 -10 -463 -7 -530 3
-329 52 -531 115 -790 248 -212 109 -388 239 -575 427 -365 367 -584 803 -659
1316 -16 107 -22 197 -21 340 1 136 3 176 14 260 4 22 8 58 11 80 5 41 7 55
25 140 6 28 12 61 15 73 8 43 75 246 107 322 88 215 198 397 378 630 36 47
111 144 165 215 55 72 105 137 112 145 6 8 65 85 130 170 66 85 209 272 319
415 109 143 213 278 229 299 17 22 64 83 105 137 41 54 111 144 154 201 44 57
100 130 126 163 25 33 72 94 103 135 31 41 61 81 67 88 12 13 8 13 -100 1z"/>
<path d="M3375 4654 c-152 -23 -240 -51 -370 -117 -282 -143 -504 -423 -579
-727 -27 -110 -28 -121 -32 -256 -11 -366 146 -698 438 -924 302 -235 696
-301 1060 -179 348 117 631 412 728 759 44 158 56 326 35 470 -11 78 -14 93
-33 160 -85 292 -290 546 -556 690 -208 112 -466 158 -691 124z"/>
</g>
</svg>
